<svg width="80" height="80" viewBox="0 0 80 80" fill="none" xmlns="http://www.w3.org/2000/svg">
<path d="M28.9999 37.75L33.9999 50.25L35.2499 61.5H43.9999V59L41.4999 57.75L40.2499 49L36.4999 39L28.9999 37.75Z" fill="#B53F92"/>
<path d="M40.2498 62.75H17.7498C17.5118 62.75 17.2778 62.682 17.0778 62.554C16.8758 62.426 16.7158 62.242 16.6158 62.026C16.5158 61.81 16.4798 61.57 16.5118 61.334C16.5438 61.096 16.6418 60.874 16.7958 60.692L30.5458 44.442C30.6778 44.288 30.8438 44.166 31.0338 44.09C31.2218 44.014 31.4278 43.986 31.6298 44.006C31.8318 44.028 32.0259 44.098 32.1959 44.212C32.3659 44.326 32.5038 44.478 32.5998 44.658L41.3498 60.908C41.4538 61.098 41.5038 61.312 41.4998 61.528C41.4938 61.744 41.4338 61.956 41.3238 62.142C41.2118 62.326 41.0559 62.48 40.8679 62.588C40.6779 62.694 40.4658 62.75 40.2498 62.75ZM20.4459 60.25H38.1578L31.2698 47.458L20.4459 60.25Z" fill="#667447"/>
<path d="M17.7499 47.75C15.0299 47.75 12.3719 48.556 10.1099 50.068C7.84991 51.578 6.08791 53.726 5.04591 56.238C4.00591 58.75 3.73393 61.516 4.26393 64.182C4.79393 66.85 6.10394 69.3 8.02794 71.222C9.94994 73.146 12.3999 74.456 15.0679 74.986C17.7339 75.516 20.4999 75.244 23.0119 74.204C25.5239 73.162 27.6719 71.4 29.1819 69.14C30.6939 66.878 31.4999 64.22 31.4999 61.5C31.4999 59.694 31.1439 57.906 30.4539 56.238C29.7619 54.57 28.7499 53.054 27.4719 51.778C26.1959 50.5 24.6799 49.488 23.0119 48.796C21.3439 48.106 19.5559 47.75 17.7499 47.75ZM17.7499 71.5C15.7719 71.5 13.8379 70.914 12.1939 69.814C10.5499 68.716 9.26792 67.154 8.51192 65.326C7.75392 63.5 7.55591 61.488 7.94191 59.55C8.32791 57.61 9.27993 55.828 10.6779 54.428C12.0779 53.03 13.8599 52.078 15.7999 51.692C17.7379 51.306 19.7499 51.504 21.5759 52.262C23.4039 53.018 24.9659 54.3 26.0639 55.944C27.1639 57.588 27.7499 59.522 27.7499 61.5C27.7499 64.152 26.6959 66.696 24.8219 68.572C22.9459 70.446 20.4019 71.5 17.7499 71.5Z" fill="#CDCCC8"/>
<path d="M62.7499 47.75C60.0299 47.75 57.3719 48.556 55.1099 50.068C52.8499 51.578 51.0879 53.726 50.0459 56.238C49.0059 58.75 48.7339 61.516 49.2639 64.182C49.7939 66.85 51.1039 69.3 53.0279 71.222C54.9499 73.146 57.3999 74.456 60.0679 74.986C62.7339 75.516 65.4999 75.244 68.0119 74.204C70.5239 73.162 72.6719 71.4 74.1819 69.14C75.6939 66.878 76.4999 64.22 76.4999 61.5C76.4999 57.854 75.0519 54.356 72.4719 51.778C69.8939 49.198 66.3959 47.75 62.7499 47.75ZM62.7499 71.5C60.7719 71.5 58.8379 70.914 57.1939 69.814C55.5499 68.716 54.2679 67.154 53.5119 65.326C52.7539 63.5 52.5559 61.488 52.9419 59.55C53.3279 57.61 54.2799 55.828 55.6779 54.428C57.0779 53.03 58.8599 52.078 60.7999 51.692C62.7379 51.306 64.7499 51.504 66.5759 52.262C68.4039 53.018 69.9659 54.3 71.0639 55.944C72.1639 57.588 72.7499 59.522 72.7499 61.5C72.7499 64.152 71.6959 66.696 69.8219 68.572C67.9459 70.446 65.4019 71.5 62.7499 71.5Z" fill="#CDCCC8"/>
<path d="M31.4999 46.4999C31.1819 46.4999 30.8779 46.3799 30.6459 46.1619C30.4139 45.9459 30.2739 45.6499 30.2519 45.3339L29.8559 39.3879C29.8339 39.0579 29.9439 38.7319 30.1619 38.4819C30.3799 38.2319 30.6879 38.0799 31.0199 38.0579C31.3499 38.0359 31.6759 38.1459 31.9259 38.3639C32.1759 38.5819 32.3279 38.8899 32.3499 39.2219L32.6519 43.7299L54.9919 39.0279C55.1539 38.9939 55.3179 38.9919 55.4799 39.0219C55.6419 39.0519 55.7959 39.1139 55.9339 39.2039C56.0699 39.2919 56.1899 39.4079 56.2819 39.5439C56.3739 39.6799 56.4399 39.8319 56.4739 39.9919C56.5079 40.1539 56.5099 40.3179 56.4799 40.4799C56.4479 40.6419 56.3879 40.7959 56.2979 40.9319C56.2079 41.0699 56.0919 41.1899 55.9559 41.2819C55.8219 41.3739 55.6679 41.4399 55.5079 41.4739L31.7579 46.4739C31.6739 46.4919 31.5859 46.4999 31.4999 46.4999Z" fill="#667447"/>
<path d="M62.7499 62.75C62.4839 62.75 62.2259 62.666 62.0119 62.508C61.7979 62.352 61.6399 62.132 61.5599 61.878L52.8099 34.378C52.7399 34.16 52.7319 33.926 52.7859 33.704C52.8399 33.482 52.9539 33.278 53.1159 33.116L54.3659 31.866C54.5999 31.632 54.9179 31.5 55.2499 31.5H61.4999C62.4939 31.5 63.4479 31.896 64.1519 32.598C64.8539 33.302 65.2499 34.256 65.2499 35.25C65.2499 36.244 64.8539 37.198 64.1519 37.902C63.4479 38.604 62.4939 39 61.4999 39H58.9999C58.6679 39 58.3499 38.868 58.1159 38.634C57.8819 38.4 57.7499 38.082 57.7499 37.75C57.7499 37.418 57.8819 37.1 58.1159 36.866C58.3499 36.632 58.6679 36.5 58.9999 36.5H61.4999C61.8319 36.5 62.1499 36.368 62.3839 36.134C62.6179 35.9 62.7499 35.582 62.7499 35.25C62.7499 34.918 62.6179 34.6 62.3839 34.366C62.1499 34.132 61.8319 34 61.4999 34H55.7679L55.4219 34.346L63.9419 61.12C63.9999 61.308 64.0159 61.508 63.9839 61.702C63.9519 61.896 63.8759 62.08 63.7599 62.238C63.6439 62.396 63.4919 62.526 63.3159 62.614C63.1399 62.704 62.9459 62.75 62.7499 62.75Z" fill="#667447"/>
<path d="M40.2478 62.75C40.0198 62.75 39.7958 62.686 39.5998 62.568C39.4038 62.448 39.2458 62.278 39.1398 62.074C39.0338 61.872 38.9878 61.642 39.0018 61.414C39.0178 61.186 39.0958 60.966 39.2278 60.78L54.2278 39.53C54.3238 39.394 54.4438 39.28 54.5818 39.192C54.7198 39.102 54.8758 39.042 55.0378 39.014C55.1998 38.986 55.3658 38.99 55.5258 39.026C55.6878 39.062 55.8398 39.13 55.9738 39.224C56.1078 39.32 56.2218 39.44 56.3098 39.58C56.3978 39.718 56.4578 39.874 56.4838 40.036C56.5118 40.198 56.5078 40.364 56.4718 40.524C56.4338 40.686 56.3658 40.836 56.2718 40.97L41.2718 62.22C41.1558 62.384 41.0018 62.518 40.8238 62.61C40.6458 62.702 40.4498 62.75 40.2478 62.75Z" fill="#667447"/>
<path d="M28.9999 31.5L37.7499 16.5L41.4999 19L42.7499 22.75L37.7499 34L28.9999 31.5Z" fill="#C378CB"/>
<path d="M48.9999 32.75H51.4999L53.9999 34L55.2499 31.5L53.9999 29H50.2499L48.9999 32.75Z" fill="#B53F92"/>
<path d="M46.4999 10.25V14.674C46.4999 15.158 46.3079 15.622 45.9659 15.966C45.6219 16.308 45.1579 16.5 44.6739 16.5H42.7499L41.4999 19L37.7499 16.5L38.9999 14V10.25H46.4999Z" fill="#FEB784"/>
<path d="M40.2499 10.25C40.2499 11.438 40.0159 12.616 39.5599 13.714C39.1059 14.814 38.4399 15.812 37.5979 16.652L37.1719 17.078C36.9599 17.29 36.7059 17.46 36.4279 17.576C36.1479 17.69 35.8499 17.75 35.5479 17.75H34.4059C33.9239 17.75 33.4539 17.598 33.0639 17.316C32.6719 17.034 32.3799 16.636 32.2279 16.18C32.1319 15.892 32.0939 15.59 32.1139 15.29C32.1359 14.988 32.2159 14.694 32.3519 14.426C32.4859 14.156 32.6739 13.914 32.9019 13.716C33.1299 13.52 33.3939 13.368 33.6799 13.272C34.1779 13.106 34.6379 12.844 35.0359 12.5C35.4319 12.156 35.7559 11.738 35.9919 11.268L36.4999 10.25H40.2499Z" fill="#6E3C26"/>
<path d="M36.6839 29.534C35.7319 30.01 34.7219 30.356 33.6779 30.564C30.5779 31.184 27.3999 31.322 24.2579 30.974L19.14 30.404C18.758 30.362 18.4039 30.18 18.1479 29.894C17.8899 29.608 17.7479 29.236 17.7479 28.852V25.77C17.7479 25.548 17.7959 25.33 17.8859 25.128C17.9779 24.926 18.112 24.746 18.278 24.598C18.444 24.452 18.6379 24.342 18.8499 24.278C19.0619 24.212 19.286 24.192 19.506 24.22L26.3959 25.08C27.2859 25.192 28.1899 25.102 29.0419 24.818C29.8179 24.56 30.5319 24.146 31.1419 23.602C31.7519 23.056 32.2459 22.394 32.5899 21.652L33.1519 20.442C33.5259 19.638 34.1219 18.956 34.8699 18.48C35.6179 18.002 36.4879 17.75 37.3739 17.75C38.2379 17.75 39.0859 17.99 39.8199 18.444C40.5559 18.9 41.15 19.55 41.5359 20.322L42.7499 22.75L42.0339 24.182C40.8759 26.498 38.9979 28.376 36.6839 29.534Z" fill="#C378CB"/>
<path d="M42.4779 23.2921L42.0319 24.1821C41.3259 25.6001 40.3439 26.8601 39.1439 27.8941L35.2719 24.0221C34.9799 23.7361 34.7479 23.3941 34.5879 23.0181C34.4279 22.6421 34.3459 22.2361 34.3439 21.8281C34.3419 21.4201 34.4199 21.0141 34.5759 20.6361C34.7319 20.2581 34.9599 19.9141 35.2499 19.6241C35.5379 19.3361 35.8819 19.1061 36.2599 18.9521C36.6379 18.7961 37.0439 18.7161 37.4519 18.7181C37.8619 18.7201 38.2659 18.8041 38.6419 18.9641C39.0199 19.1221 39.3599 19.3541 39.6459 19.6461L42.4779 23.2921Z" fill="#C378CB"/>
<path d="M39.6259 66.5C42.0419 66.5 43.9999 64.542 43.9999 62.124C43.9999 59.708 42.0419 57.75 39.6259 57.75C37.2079 57.75 35.2499 59.708 35.2499 62.124C35.2499 64.542 37.2079 66.5 39.6259 66.5Z" fill="#BBBAB6"/>
<path d="M42.7498 52.75L47.0958 41.884C47.5219 40.822 47.5998 39.652 47.3238 38.542C47.0758 37.554 46.5578 36.656 45.8258 35.948C45.0938 35.24 44.1778 34.752 43.1818 34.538L28.9998 31.5L28.3038 35.678C28.2318 36.104 28.2498 36.538 28.3558 36.954C28.4598 37.372 28.6498 37.762 28.9118 38.102C29.1758 38.442 29.5058 38.726 29.8818 38.932C30.2598 39.14 30.6738 39.266 31.1038 39.304L41.4998 40.25L37.7498 52.75H42.7498Z" fill="#B53F92"/>
<path d="M37.7499 52.75V57.75H45.2499V55.546C45.2499 55.08 45.1199 54.626 44.8759 54.23C44.6319 53.836 44.2839 53.516 43.8679 53.31L42.7499 52.75H37.7499Z" fill="#CDCCC8"/>
<path d="M17.7499 64C19.1299 64 20.2499 62.88 20.2499 61.5C20.2499 60.12 19.1299 59 17.7499 59C16.3699 59 15.2499 60.12 15.2499 61.5C15.2499 62.88 16.3699 64 17.7499 64Z" fill="#CDCCC8"/>
<path d="M62.7499 64C64.1299 64 65.2499 62.88 65.2499 61.5C65.2499 60.12 64.1299 59 62.7499 59C61.3699 59 60.2499 60.12 60.2499 61.5C60.2499 62.88 61.3699 64 62.7499 64Z" fill="#CDCCC8"/>
<path d="M50.2499 29L43.9999 24L39.6479 18.3981C39.1199 17.8701 38.4219 17.552 37.6779 17.498C36.9359 17.446 36.1999 17.664 35.6039 18.11C35.2499 18.376 34.9559 18.714 34.7439 19.104C34.5319 19.494 34.4059 19.924 34.3739 20.366C34.3419 20.808 34.4059 21.252 34.5619 21.666C34.7159 22.082 34.9579 22.458 35.2719 22.772L40.2499 27.75L48.9999 32.75L50.2499 29Z" fill="#C378CB"/>
<path d="M46.4999 10.25H36.4999V6.18799C36.4999 5.60799 36.7299 5.05001 37.1399 4.64001C37.5499 4.23001 38.1079 4 38.6879 4H44.3119C44.8919 4 45.4499 4.23001 45.8599 4.64001C46.2699 5.05001 46.4999 5.60799 46.4999 6.18799V10.25Z" fill="#B53F92"/>
<path d="M50.2499 11.5H37.7499C37.4179 11.5 37.0999 11.368 36.8659 11.134C36.6319 10.9 36.4999 10.582 36.4999 10.25C36.4999 9.918 36.6319 9.6 36.8659 9.366C37.0999 9.132 37.4179 9 37.7499 9H50.2499C50.5819 9 50.8999 9.132 51.1339 9.366C51.3679 9.6 51.4999 9.918 51.4999 10.25C51.4999 10.582 51.3679 10.9 51.1339 11.134C50.8999 11.368 50.5819 11.5 50.2499 11.5Z" fill="#B53F92"/>
</svg>
