<svg width="80" height="80" viewBox="0 0 80 80" fill="none" xmlns="http://www.w3.org/2000/svg">
<path d="M47.25 4H52.25V12.75H47.25V4Z" fill="#CDCCC8"/>
<path d="M71 12.75H66V4H71V12.75Z" fill="#CDCCC8"/>
<path d="M52.25 6.5H66V10.25H52.25V6.5Z" fill="#808080"/>
<path d="M6 4H11V12.75H6V4Z" fill="#CDCCC8"/>
<path d="M29.75 12.75H24.75V4H29.75V12.75Z" fill="#CDCCC8"/>
<path d="M11 6.5H24.75V10.25H11V6.5Z" fill="#808080"/>
<path d="M62.25 11.5L57.856 22.4828C57.462 23.4686 56.764 24.3032 55.864 24.8656L52.45 27L47.25 30.25V37.75L49.324 51.225L52.25 70.25L47.25 74L40.896 54.0344L38.5 46.5L36.026 54.2766L29.75 74L24.75 70.25L27.682 51.1984L29.75 37.75V30.25L24.55 27L21.136 24.8656C20.236 24.3032 19.538 23.4686 19.144 22.4828L14.75 11.5L16 6.5H21V12.75L24.75 19L27.476 19.6812L38.5 22.4376L49.524 19.6812L52.25 19L56 12.75V6.5H61L62.25 11.5Z" fill="#FEB784"/>
<path d="M49.324 51.225L40.896 54.0344L38.5 46.5L36.026 54.2766L27.682 51.1984L29.75 37.75H47.25L49.324 51.225Z" fill="#B53F92"/>
<path d="M24.75 70.25L29.75 74V76.5H18.5V74L24.75 70.25Z" fill="#D1E4FF"/>
<path d="M47.25 74V76.5H58.5V74L52.25 70.25L47.25 74Z" fill="#D1E4FF"/>
<path d="M52.4501 27L47.2501 30.25V37.75H29.7501V30.25L24.55 27L27.4761 19.6812L38.5001 22.4376L49.524 19.6812L52.4501 27Z" fill="#C378CB"/>
<path d="M34.75 16.5H42.25V20.25C42.25 21.2446 41.854 22.1984 41.152 22.9016C40.448 23.605 39.494 24 38.5 24C37.506 24 36.552 23.605 35.848 22.9016C35.146 22.1984 34.75 21.2446 34.75 20.25V16.5Z" fill="#FEB784"/>
<path d="M34.75 16.5V14L37.774 11.9834C38.248 11.6682 38.804 11.5 39.372 11.5C39.75 11.5 40.124 11.5744 40.474 11.7192C40.822 11.8638 41.14 12.0758 41.406 12.343C41.674 12.6104 41.886 12.9276 42.03 13.277C42.176 13.6262 42.25 14.0004 42.25 14.3784V16.5H34.75Z" fill="#6E3C26"/>
</svg>
