<svg width="80" height="80" viewBox="0 0 80 80" fill="none" xmlns="http://www.w3.org/2000/svg">
<path d="M34.75 16.5L43.5 22.75L37.25 29L34.75 16.5Z" fill="#FEB784"/>
<path d="M34.75 16.5L31 20.25L29.75 14H27.25L26 11.5H24.75L26 7.75C26 7.2576 26.096 6.7698 26.286 6.3148C26.474 5.8598 26.75 5.4464 27.098 5.0984C27.25 4.9462 27.416 4.8078 27.592 4.6844C28.224 4.238 28.978 3.999 29.75 4H30.572C31.408 4.0002 32.22 4.2798 32.88 4.7946C33.538 5.3092 34.006 6.0294 34.21 6.8406C34.558 8.234 34.396 9.7058 33.754 10.9906L33.5 11.5L34.75 16.5Z" fill="#FEB784"/>
<path d="M34.39 8.30161C34.39 9.23501 34.172 10.1556 33.754 10.9906L33.5 11.5C31.042 9.8622 29.054 7.6108 27.734 4.9688L27.592 4.6844C28.224 4.238 28.978 3.999 29.75 4H30.572C31.408 4.0002 32.22 4.2798 32.88 4.7946C33.538 5.3092 34.006 6.0294 34.21 6.8406C34.328 7.3184 34.39 7.80901 34.39 8.30161Z" fill="#6E3C26"/>
<path d="M35.634 4.71654C36.004 4.62394 36.388 4.60754 36.764 4.66814C37.142 4.72874 37.502 4.86514 37.824 5.06894C38.146 5.27294 38.424 5.53994 38.638 5.85414C38.854 6.16834 39.004 6.52314 39.08 6.89694C39.516 9.08334 40.592 11.0911 42.168 12.6677L43.5 13.9999L38.442 12.9885C37.656 12.8309 36.906 12.5207 36.238 12.0753L35.83 11.8033C35.114 11.3255 34.526 10.6781 34.12 9.91854C33.712 9.15914 33.5 8.31094 33.5 7.44954C33.5 6.82114 33.71 6.21094 34.096 5.71574C34.484 5.22054 35.024 4.86894 35.634 4.71654Z" fill="#6E3C26"/>
<path d="M56 65.25L53.5 66.5L42.25 56.5L37.692 48.0344L35.622 44.189L33.384 45.3078L26 49L29.75 52.75L31 61.5L28.5 62.75L19.75 49C22.232 44.8624 25.392 41.1724 29.1 38.0844L31 36.5V32.75H38.5L38.832 32.8828C40.496 33.5466 41.874 34.7722 42.726 36.3466C43.578 37.921 43.852 39.7446 43.5 41.5C45.16 44.8186 46.368 48.3432 47.096 51.9812L47.25 52.75C49.184 53.524 50.908 54.746 52.278 56.3158C53.648 57.8856 54.628 59.7582 55.132 61.7796L56 65.25Z" fill="#B53F92"/>
<path d="M35.622 44.189L33.384 45.3078L32.484 43.6374C32.328 43.3484 32.232 43.0314 32.198 42.7046C32.164 42.378 32.196 42.048 32.29 41.7334C32.384 41.4188 32.54 41.126 32.748 40.8714C32.956 40.6168 33.21 40.4058 33.5 40.25L35.622 44.189Z" fill="#923B78"/>
<path d="M61 67.75L56 76.5H49.75C49.75 75.7488 49.96 75.0126 50.354 74.3734C50.75 73.7344 51.314 73.2178 51.986 72.8812L52.25 72.75L52.75 70.25L53.5 66.5L56 65.25L58.76 66.6296L61 67.75Z" fill="#683B0D"/>
<path d="M56 72.75H52.25L52.75 70.25H53.5C53.828 70.25 54.154 70.3146 54.456 70.4402C54.76 70.5658 55.036 70.7498 55.268 70.982C55.5 71.2142 55.684 71.4898 55.81 71.7932C55.936 72.0966 56 72.4216 56 72.75Z" fill="#683B0D"/>
<path d="M36 66.5L24.75 72.75C24.372 71.9904 24.2 71.1444 24.252 70.2972C24.304 69.45 24.58 68.6318 25.05 67.925L28.5 62.75L31 61.5L36 66.5Z" fill="#683B0D"/>
<path d="M29.75 26.5L27.588 24.8784C26.822 24.3034 26.304 23.4564 26.142 22.5116C25.98 21.5668 26.1859 20.596 26.7179 19.7984L28.426 17.2344C28.834 16.624 29.386 16.1234 30.032 15.7774C30.678 15.4312 31.402 15.25 32.134 15.25C33.208 15.25 34.2439 15.637 35.0539 16.3398C35.8659 17.0426 36.3939 18.0142 36.5459 19.0762L38.5 32.75H31L29.75 26.5Z" fill="#C378CB"/>
<path d="M29.75 22.75L30.624 17.5118C30.728 16.8798 31.054 16.3056 31.544 15.8914C32.032 15.4774 32.652 15.25 33.294 15.25C33.648 15.25 34 15.32 34.328 15.456C34.658 15.592 34.956 15.7914 35.208 16.0428C35.458 16.2942 35.658 16.5926 35.794 16.921C35.93 17.2494 36 17.6014 36 17.957V18.6668C36 18.888 35.972 19.1086 35.92 19.3232L33.5 29H29.75L21 26.5H19.75L16 25.25L17.25 20.25L22.25 21.5V22.75H29.75L31 24L29.75 22.75Z" fill="#FEB784"/>
<path d="M61 67.75L56 76.5H49.75C49.75 75.593 50.054 74.7124 50.616 74H54.548L55.262 72.75L55.81 71.7938L58.76 66.6296L61 67.75Z" fill="#D4E4F0"/>
<path d="M35.9999 66.4999L24.7499 72.7499C24.3479 71.9493 24.1799 71.0525 24.2619 70.1609L34.16 64.6609L35.9999 66.4999Z" fill="#D4E4F0"/>
</svg>
