<svg width="45" height="45" viewBox="0 0 45 45" fill="none" xmlns="http://www.w3.org/2000/svg">
<g clip-path="url(#clip0_11_3479)">
<path d="M36.1313 13.3955L38.8256 10.7011L36.1744 8.04891L33.292 10.9312C30.6589 9.06523 27.5862 7.91518 24.375 7.59375V3.75H28.125V0H16.875V3.75H20.625V7.59375C17.4138 7.91518 14.3411 9.06523 11.708 10.9312L8.82563 8.04891L6.17439 10.7011L8.86876 13.3955C6.35372 16.0583 4.67371 19.3996 4.0362 23.0065C3.39868 26.6134 3.83158 30.3281 5.28144 33.6917C6.73129 37.0554 9.13461 39.9207 12.1946 41.9339C15.2546 43.9471 18.8372 45.0199 22.5 45.0199C26.1628 45.0199 29.7455 43.9471 32.8054 41.9339C35.8654 39.9207 38.2687 37.0554 39.7186 33.6917C41.1684 30.3281 41.6013 26.6134 40.9638 23.0065C40.3263 19.3996 38.6463 16.0583 36.1313 13.3955ZM22.5 41.25C19.5333 41.25 16.6332 40.3703 14.1665 38.722C11.6997 37.0738 9.77713 34.7311 8.64182 31.9903C7.5065 29.2494 7.20945 26.2334 7.78823 23.3236C8.36701 20.4139 9.79562 17.7412 11.8934 15.6434C13.9912 13.5456 16.6639 12.117 19.5737 11.5382C22.4834 10.9594 25.4994 11.2565 28.2403 12.3918C30.9812 13.5271 33.3238 15.4497 34.9721 17.9164C36.6203 20.3832 37.5 23.2833 37.5 26.25C37.4955 30.2269 35.9138 34.0396 33.1017 36.8517C30.2896 39.6637 26.4769 41.2455 22.5 41.25Z" fill="#4E7D96"/>
<path d="M22.4999 15V26.25H11.2499C11.2499 28.475 11.9097 30.6501 13.1459 32.5002C14.3821 34.3502 16.1391 35.7922 18.1947 36.6436C20.2504 37.4951 22.5124 37.7179 24.6947 37.2838C26.877 36.8497 28.8815 35.7783 30.4549 34.2049C32.0282 32.6316 33.0997 30.627 33.5338 28.4448C33.9679 26.2625 33.7451 24.0005 32.8936 21.9448C32.0421 19.8891 30.6002 18.1321 28.7501 16.896C26.9001 15.6598 24.725 15 22.4999 15Z" fill="#4E7D96"/>
</g>
<defs>
<clipPath id="clip0_11_3479">
<rect width="45" height="45" fill="white"/>
</clipPath>
</defs>
</svg>
