<svg width="41" height="45" viewBox="0 0 41 45" fill="none" xmlns="http://www.w3.org/2000/svg">
<path d="M12.3958 20.6581C12.3958 19.9113 11.7902 19.3061 11.0435 19.3061H4.03869C3.29162 19.3061 2.68634 19.9113 2.68634 20.6581V39.5913H12.3958V20.6581Z" fill="#4E7D96"/>
<path d="M38.4746 13.0143C38.4746 12.2673 37.869 11.662 37.1223 11.662H30.1175C29.3708 11.662 28.7651 12.2673 28.7651 13.0143V39.5913H38.4746V13.0143Z" fill="#4E7D96"/>
<path d="M25.4352 23.142C25.4352 22.3953 24.83 21.7897 24.0832 21.7897H17.0781C16.3314 21.7897 15.7261 22.3953 15.7261 23.142V39.5913H25.4352V23.142Z" fill="#4E7D96"/>
<path d="M39.6121 42.2957H1.54961C0.802544 42.2957 0.197266 42.9009 0.197266 43.6477C0.197266 44.3947 0.802544 45 1.54961 45H39.6121C40.3588 45 40.9644 44.3947 40.9644 43.6477C40.9644 42.9009 40.3588 42.2957 39.6121 42.2957Z" fill="#4E7D96"/>
<path d="M9.63347 15.4921C9.6733 15.4921 9.71381 15.4904 9.75398 15.4869C9.8762 15.476 12.7931 15.2061 16.9339 13.7391C20.7358 12.3919 26.3509 9.72839 31.5117 4.68876C31.5375 4.6637 31.5608 4.63726 31.5842 4.61048V6.69136C31.5842 7.43843 32.1894 8.04371 32.9362 8.04371C33.6829 8.04371 34.2885 7.43843 34.2885 6.69136V1.35235C34.2885 0.605278 33.6829 0 32.9362 0H27.5968C26.8501 0 26.2448 0.605278 26.2448 1.35235C26.2448 2.09908 26.8501 2.70435 27.5968 2.70435H29.6787C29.6598 2.72083 29.6403 2.73628 29.6221 2.75414C24.8427 7.42161 19.6413 9.90074 16.1195 11.1583C12.2812 12.5292 9.5418 12.7905 9.51468 12.7929C8.77173 12.8595 8.22276 13.5152 8.28833 14.2585C8.35047 14.9623 8.94065 15.4921 9.63347 15.4921Z" fill="#4E7D96"/>
</svg>
