<svg width="80" height="80" viewBox="0 0 80 80" fill="none" xmlns="http://www.w3.org/2000/svg">
<path d="M17.75 34C15.5706 32.922 13.4556 31.718 11.4152 30.396C9.22956 29.33 8.39776 26.16 9.46376 23.974C9.71696 23.454 10.0704 22.99 10.5036 22.606C10.9366 22.224 11.441 21.93 11.9878 21.74C12.5348 21.552 13.1134 21.474 13.6906 21.51C14.268 21.544 14.8326 21.694 15.3524 21.948L16.3296 22.488L19.2556 22.056L19.4652 23.654L21.184 24.974C21.3142 25.074 21.4234 25.198 21.5056 25.34C21.5876 25.482 21.6408 25.64 21.6622 25.802C21.6836 25.966 21.6726 26.13 21.63 26.29C21.5876 26.448 21.5142 26.596 21.4142 26.726L20.0944 28.446L27.3216 33.994L23.853 38.512L17.75 34Z" fill="#FEB784"/>
<path d="M76.5 76.5H69V74L70.25 72.75L62.4438 68.158L49 60.25L42.75 56.5H17.75L17.2718 64.16L16.5 76.5H9.2032C8.8584 76.5 8.5248 76.376 8.2624 76.154C7.9998 75.93 7.8254 75.62 7.7702 75.28C7.715 74.94 7.7826 74.59 7.961 74.296C8.1392 74 8.4168 73.778 8.7438 73.668L10.5062 73.082C10.7956 72.984 11.0472 72.8 11.2256 72.552C11.4038 72.306 11.4998 72.008 11.5 71.704V52.75C11.5 51.756 11.895 50.802 12.5984 50.098C13.3016 49.396 14.2554 49 15.25 49H31.5V42.75H24L19 36.5L19.8266 35.536L23.525 31.078L25.25 29L24 26.5L10.25 12.75L4 9V6.5L7.75 4L20.25 15.25L23.9396 18.478C28.1066 22.124 31.5238 26.548 34 31.5L36.5 35.25L44 42.75L47.75 47.75L60.25 57.75L66.1594 63.204L73.7446 70.206C74.6134 71.008 75.3068 71.982 75.781 73.064C76.2552 74.148 76.5 75.318 76.5 76.5Z" fill="#FEB784"/>
<path d="M66.1594 63.204L62.75 67.75L62.4438 68.158L49 60.25L42.75 56.5H17.75L17.2718 64.16L16.5 64H11.5V52.75C11.5002 51.756 11.8954 50.802 12.5986 50.098C13.3018 49.396 14.2556 49 15.25 49H31.5V46.5L44 42.75L47.75 47.75L60.25 57.75L66.1594 63.204Z" fill="#B53F92"/>
<path d="M19 36.5L15.785 40.786C15.439 41.248 15.2632 41.814 15.2872 42.39L16.5 71.5L12.75 76.5H16.5L19 75.25L19.991 76.242C20.1568 76.406 20.3816 76.5 20.616 76.5C20.7322 76.5 20.8472 76.478 20.9544 76.432C21.0616 76.388 21.159 76.324 21.2412 76.242C21.3232 76.16 21.3882 76.062 21.4328 75.954C21.4772 75.848 21.5 75.732 21.5 75.616V44L24 42.75L19 36.5Z" fill="#FEC093"/>
<path d="M5.0418 34.208V42.542L4 44.626L6.6888 43.728C7.7258 43.384 8.6278 42.72 9.267 41.834C9.906 40.946 10.25 39.88 10.25 38.788V29C8.8686 29 7.544 29.548 6.5672 30.526C5.5904 31.502 5.0418 32.826 5.0418 34.208Z" fill="#6E3C26"/>
<path d="M15.4306 30.1021L14.1552 30.5401C13.8068 30.6601 13.427 30.6521 13.0844 30.5181C12.7416 30.3821 12.4584 30.1281 12.286 29.8041C12.1134 29.4781 12.0628 29.1021 12.1434 28.7421C12.224 28.3821 12.4304 28.0641 12.7252 27.8421L13.0274 27.6161L10.4732 22.6321C8.81379 23.9321 6.80819 26.6721 8.23879 30.0261C10.2516 34.7461 17.75 34.0001 17.75 34.0001L15.4306 30.1021Z" fill="#6E3C26"/>
<path d="M30.25 42.75L36.5 35.25L34 31.5C34 31.5 29 32.75 25.25 29C25.25 29 27.75 34 25.25 36.5C22.75 39 19 36.5 19 36.5L21.6804 40.968C22.3706 42.118 23.4496 42.984 24.7224 43.408C25.8762 43.792 27.1234 43.792 28.2772 43.408L30.25 42.75Z" fill="#C378CB"/>
</svg>
